<svg xmlns="http://www.w3.org/2000/svg" width="200" height="200" viewBox="0 0 300 200"><path d="M150 0C138 0 126.2 0.9 115 2.7V2.7 17.9 92.5v15 74.6 15.2 0c4.9 0.8 9.9 1.4 15 1.8v0-15.1-76.6h17.5v77.5 15c0.8 0 1.7 0 2.5 0h0c4.2 0 8.4-0.1 12.5-0.3V184.6 107.5 92.5 15.4 0.3 0.3c-4.1-0.2-8.3-0.3-12.5-0.3h0zM177.5 1.6v0 15.1 75.7 15 75.7 15.1 0c5.1-0.6 10.1-1.4 15-2.4v0-15.3-73.2H210v68.6 15.6 0.1c5.1-1.5 10.2-3.1 15-5V186.7 170.6 107.5 92.5 29.4 13.3 13.2C210.5 7.6 194.5 3.7 177.5 1.6ZM100 5.6v0c-1.7 0.4-3.4 0.8-5.1 1.3 0 0-0.1 0-0.1 0 0 0 0 0 0 0 0 0 0 0 0 0-1 0.3-2.1 0.5-3.1 0.8-0.7 0.2-1.4 0.4-2.1 0.6 0 0 0 0 0 0 0 0 0 0 0 0-1.7 0.5-3.4 1-5.1 1.6 0 0 0 0 0 0 0 0 0 0 0 0-2.6 0.8-5.2 1.7-7.7 2.7 0 0 0 0-0.1 0 0 0 0 0 0 0-1.6 0.6-3.2 1.2-4.7 1.8 0 0-0.1 0-0.1 0 0 0-0.1 0-0.1 0.1 0 0 0 0 0 0-1.5 0.6-3.1 1.3-4.6 1.9 0 0-0.1 0-0.1 0 0 0 0 0-0.1 0 0 0 0 0 0 0-1.5 0.7-3.1 1.4-4.6 2.1 0 0-0.1 0-0.1 0-0.6 0.3-1.2 0.6-1.8 0.9 0 0-0.1 0-0.1 0-0.6 0.3-1.1 0.6-1.7 0.8-0.1 0-0.1 0.1-0.2 0.1-0.6 0.3-1.2 0.6-1.7 0.9-2.3 1.2-4.6 2.5-6.8 3.8l0 17.8c1.3-0.9 2.7-1.8 4.1-2.7 0.3-0.2 0.7-0.4 1-0.7 0.3-0.2 0.6-0.3 0.8-0.5 0.1-0.1 0.3-0.2 0.4-0.2 0.3-0.2 0.6-0.4 1-0.6 0.1-0.1 0.2-0.1 0.3-0.2 0.4-0.2 0.8-0.5 1.2-0.7 0 0 0 0 0.1 0 0.4-0.2 0.8-0.5 1.3-0.7 0 0 0 0 0 0 0 0 0 0 0 0 0.5-0.3 0.9-0.5 1.4-0.8 1-0.5 1.9-1 2.9-1.6 0 0 0.1 0 0.1 0 0.5-0.2 0.9-0.5 1.4-0.7 0.5-0.3 1-0.5 1.5-0.7 0.5-0.2 1-0.5 1.5-0.7 0 0 0 0 0 0 5.1-2.4 10.5-4.6 16.1-6.6v67 15 67c-1.7-0.6-3.3-1.2-4.9-1.8-0.1 0-0.1-0.1-0.2-0.1-1.5-0.6-3-1.2-4.5-1.8-0.2-0.1-0.5-0.2-0.7-0.3-0.4-0.2-0.8-0.3-1.2-0.5-0.1-0.1-0.2-0.1-0.4-0.2-0.4-0.2-0.9-0.4-1.3-0.6-0.3-0.1-0.7-0.3-1-0.5-0.4-0.2-0.8-0.4-1.2-0.6-0.2-0.1-0.5-0.2-0.7-0.3-0.6-0.3-1.2-0.6-1.9-0.9-0.2-0.1-0.4-0.2-0.6-0.3-0.6-0.3-1.2-0.6-1.7-0.9-0.1 0-0.2-0.1-0.3-0.1-0.7-0.3-1.3-0.7-2-1-0.2-0.1-0.3-0.2-0.5-0.2-0.7-0.4-1.3-0.7-2-1.1v0 17c3 1.5 6.1 2.9 9.3 4.3 9.6 4 19.8 7.4 30.7 9.9 0 0 0 0 0 0V194.3 178.9 107.5 92.5 21.1 5.6v-0.1c0 0 0 0 0 0zM147.5 15V92.5H130V15.9c5.7-0.5 11.6-0.8 17.5-0.9zM235 17.4V19.8 19.9 36.7 92.5 107.5h15 29.5 5c-0.1 0.5-0.1 1-0.2 1.4 0 0.1 0 0.2 0 0.3-0.1 0.5-0.2 1-0.3 1.4 0 0 0 0 0 0 0 0 0 0 0 0-0.1 0.5-0.2 0.9-0.3 1.4 0 0.1 0 0.2-0.1 0.3-0.1 0.5-0.2 0.9-0.3 1.4 0 0 0 0.1 0 0.1-0.1 0.4-0.2 0.9-0.4 1.3 0 0.1-0.1 0.2-0.1 0.3-0.1 0.5-0.3 0.9-0.4 1.4 0 0 0 0.1 0 0.1-0.1 0.4-0.3 0.9-0.4 1.3 0 0.1-0.1 0.2-0.1 0.3-0.2 0.5-0.3 0.9-0.5 1.4 0 0.1-0.1 0.1-0.1 0.2-0.2 0.4-0.3 0.8-0.5 1.2 0 0.1-0.1 0.1-0.1 0.2-0.2 0.5-0.4 0.9-0.6 1.4 0 0.1-0.1 0.1-0.1 0.2-0.2 0.4-0.4 0.8-0.6 1.3 0 0.1-0.1 0.1-0.1 0.2-0.2 0.5-0.5 0.9-0.7 1.4 0 0.1-0.1 0.1-0.1 0.2-0.2 0.4-0.4 0.9-0.7 1.3 0 0 0 0.1-0.1 0.1-0.3 0.5-0.5 0.9-0.8 1.4 0 0.1-0.1 0.1-0.1 0.2-0.3 0.4-0.5 0.9-0.8 1.3 0 0 0 0 0 0.1-0.3 0.5-0.6 0.9-0.9 1.4 0 0-0.1 0.1-0.1 0.1-0.3 0.5-0.6 0.9-0.9 1.4-0.3 0.5-0.6 0.9-1 1.4 0 0-0.1 0.1-0.1 0.1-0.6 0.9-1.3 1.8-2 2.7 0 0.1-0.1 0.1-0.1 0.2-0.7 0.9-1.4 1.8-2.2 2.6 0 0-0.1 0.1-0.1 0.1-0.8 0.9-1.5 1.8-2.4 2.6 0 0 0 0.1-0.1 0.1-0.8 0.9-1.7 1.7-2.5 2.6 0 0 0 0-0.1 0.1-0.9 0.9-1.8 1.7-2.7 2.5 0 0 0 0 0 0 0 0 0 0 0 0-0.9 0.8-1.9 1.7-2.9 2.5-1 0.8-2 1.6-3 2.4 0 0 0 0 0 0-1.6 1.3-3.3 2.5-5 3.7v-3.7-15.8h-15v25.8 16.8 2.5c1.7-0.8 3.4-1.6 5-2.4h0c0.1-0.1 0.2-0.1 0.3-0.2 0.3-0.1 0.6-0.3 0.9-0.4 0.3-0.1 0.6-0.3 0.8-0.4 0.4-0.2 0.8-0.4 1.2-0.6 0.3-0.2 0.7-0.4 1-0.5 0.3-0.1 0.5-0.3 0.8-0.4 0.1-0.1 0.2-0.1 0.4-0.2 0 0 0 0 0 0 0 0 0 0 0 0 0.1-0.1 0.2-0.1 0.4-0.2 0.3-0.2 0.6-0.3 0.9-0.5 0.1-0.1 0.2-0.1 0.4-0.2 0 0 0 0 0.1 0 0 0 0 0 0 0 0.2-0.1 0.4-0.2 0.5-0.3 0.3-0.1 0.5-0.3 0.8-0.4 0.1-0.1 0.3-0.2 0.4-0.2 0 0 0 0 0 0 0 0 0.1 0 0.1 0 0.2-0.1 0.4-0.2 0.6-0.3 0.1-0.1 0.3-0.2 0.4-0.2 0.2-0.1 0.3-0.2 0.5-0.3 0.1-0.1 0.3-0.2 0.4-0.2 0.4-0.2 0.8-0.5 1.2-0.7 0.1-0.1 0.3-0.2 0.4-0.3 0.5-0.3 1-0.6 1.5-1 0.4-0.3 0.9-0.5 1.3-0.8 0.4-0.3 0.8-0.5 1.2-0.8 0 0 0 0 0 0 0.2-0.1 0.4-0.3 0.6-0.4 0.2-0.1 0.4-0.3 0.7-0.4 0.2-0.1 0.3-0.2 0.5-0.3 0.2-0.2 0.5-0.3 0.7-0.5 0.2-0.1 0.3-0.2 0.5-0.4 0.2-0.2 0.5-0.3 0.7-0.5 0.2-0.1 0.4-0.3 0.6-0.4 0.2-0.1 0.4-0.3 0.6-0.4 0.2-0.1 0.4-0.3 0.6-0.4 0.2-0.2 0.4-0.3 0.6-0.5 0.2-0.1 0.3-0.2 0.5-0.4 0.2-0.2 0.5-0.4 0.7-0.5 0.2-0.1 0.3-0.3 0.5-0.4 0.2-0.2 0.4-0.3 0.6-0.5 0.2-0.1 0.4-0.3 0.6-0.4 0.2-0.2 0.4-0.3 0.6-0.5 0.2-0.1 0.4-0.3 0.5-0.4 0.2-0.2 0.4-0.3 0.6-0.5 0.2-0.2 0.4-0.3 0.6-0.5 0.2-0.1 0.3-0.3 0.5-0.4 0.2-0.2 0.4-0.4 0.6-0.5 0.1-0.1 0.3-0.3 0.4-0.4 0.2-0.2 0.4-0.4 0.7-0.6 0.1-0.1 0.3-0.2 0.4-0.4 0.2-0.2 0.5-0.4 0.7-0.6 0.1-0.1 0.3-0.2 0.4-0.4 0.2-0.2 0.4-0.4 0.6-0.6 0.2-0.1 0.3-0.3 0.5-0.4 0.2-0.2 0.4-0.4 0.6-0.6 0.1-0.1 0.3-0.3 0.4-0.4 0.2-0.2 0.4-0.4 0.6-0.6 0.1-0.1 0.3-0.3 0.4-0.4 0.2-0.2 0.4-0.4 0.6-0.6 0.1-0.1 0.3-0.3 0.4-0.4 0.2-0.2 0.4-0.4 0.6-0.6 0.1-0.1 0.2-0.3 0.4-0.4 0.2-0.2 0.4-0.4 0.6-0.6 0.1-0.1 0.3-0.3 0.4-0.4 0.2-0.2 0.4-0.4 0.6-0.6 0.1-0.1 0.2-0.2 0.3-0.4 0.2-0.2 0.4-0.4 0.6-0.7 0.1-0.1 0.2-0.3 0.4-0.4 0.2-0.2 0.4-0.4 0.6-0.6 0.1-0.1 0.2-0.3 0.3-0.4 0.2-0.2 0.4-0.4 0.5-0.6 0.1-0.1 0.2-0.3 0.3-0.4 0.2-0.2 0.4-0.4 0.6-0.7 0.1-0.1 0.2-0.2 0.3-0.4 0.2-0.2 0.4-0.5 0.6-0.7 0.1-0.1 0.2-0.2 0.3-0.4 0.2-0.2 0.4-0.5 0.6-0.7 0.1-0.1 0.2-0.2 0.2-0.3 0.2-0.3 0.4-0.5 0.6-0.8 0.1-0.1 0.1-0.1 0.2-0.2 0.2-0.3 0.4-0.6 0.6-0.9 0-0.1 0.1-0.1 0.1-0.2 0.2-0.3 0.4-0.6 0.7-0.9 0 0 0.1-0.1 0.1-0.1 0.2-0.3 0.5-0.7 0.7-1 0-0.1 0.1-0.1 0.1-0.2 0.2-0.3 0.4-0.6 0.6-0.9 0-0.1 0.1-0.1 0.1-0.2 0.2-0.3 0.4-0.6 0.6-1 0 0 0 0 0 0 0 0 0 0 0 0 0.2-0.4 0.5-0.7 0.7-1.1 0 0 0 0 0 0 0 0 0 0 0-0.1 0.2-0.4 0.4-0.7 0.6-1.1 4.1-6.9 7-14.2 8.8-21.9 0.1-0.4 0.2-0.8 0.3-1.2 0 0 0 0 0 0 0 0 0 0 0 0 0.1-0.4 0.2-0.8 0.2-1.2 0 0 0-0.1 0-0.1 0.1-0.4 0.1-0.8 0.2-1.2 0 0 0-0.1 0-0.1 0.1-0.4 0.1-0.8 0.2-1.2 0 0 0 0 0 0 0 0 0 0 0 0 0.1-0.4 0.1-0.8 0.2-1.2 0 0 0 0 0 0 0 0 0 0 0 0 0.1-0.4 0.1-0.8 0.1-1.2 0 0 0-0.1 0-0.1 0-0.4 0.1-0.8 0.1-1.2 0 0 0-0.1 0-0.1 0-0.4 0.1-0.8 0.1-1.2 0-0.1 0-0.1 0-0.2 0-0.4 0-0.8 0.1-1.1 0-0.1 0-0.1 0-0.2 0-0.4 0-0.8 0-1.2 0-0.2 0-0.3 0-0.5 0-0.1 0-0.3 0-0.4 0-0.4 0-0.8 0-1.2 0 0 0-0.1 0-0.1 0-0.5 0-1 0-1.6 0-0.1 0-0.3 0-0.4 0-0.4 0-0.7 0-1.1 0-0.1 0-0.2 0-0.3 0-0.4 0-0.8-0.1-1.1 0-0.1 0-0.2 0-0.3 0-0.4-0.1-0.8-0.1-1.2 0-0.1 0-0.1 0-0.2 0-0.4-0.1-0.8-0.1-1.2 0 0 0 0 0-0.1h0-5 0-10.1-34.5V46.7c0 0 0 0 0 0v-3.7c1.7 1.2 3.4 2.4 5 3.7 0 0 0 0 0 0 0.5 0.4 1 0.8 1.5 1.2 0.5 0.4 1 0.8 1.5 1.2 0 0 0.1 0 0.1 0.1 0.5 0.4 0.9 0.8 1.4 1.2 0.5 0.4 0.9 0.8 1.4 1.2 0 0 0 0 0.1 0.1 0.9 0.8 1.8 1.7 2.7 2.5 0 0 0.1 0.1 0.1 0.1 0.9 0.8 1.7 1.7 2.5 2.6 0 0 0 0 0 0 0 0 0 0 0 0 0.8 0.9 1.6 1.8 2.4 2.6 0 0 0 0 0 0.1 0.8 0.9 1.5 1.8 2.2 2.7 0 0 0.1 0.1 0.1 0.1 0.7 0.9 1.4 1.8 2.1 2.7 0 0 0 0 0 0 0 0 0 0 0 0 0.6 0.9 1.3 1.8 1.8 2.7 1.9 2.9 3.5 5.8 4.9 8.8V49.5c-1.5-1.7-3.1-3.4-4.8-5.1v0c-0.1-0.1-0.1-0.1-0.2-0.2 0 0-0.1-0.1-0.1-0.1v0c-1.1-1.1-2.2-2.1-3.3-3.2 0 0 0 0 0 0 0 0 0 0 0 0-0.4-0.3-0.8-0.7-1.1-1-0.1-0.1-0.1-0.1-0.2-0.2-0.3-0.3-0.7-0.6-1-0.9-0.1-0.1-0.2-0.2-0.3-0.2-0.3-0.3-0.6-0.5-0.9-0.8-0.1-0.1-0.2-0.2-0.3-0.3-0.3-0.3-0.7-0.6-1-0.9-0.1-0.1-0.1-0.1-0.2-0.2-0.4-0.3-0.8-0.7-1.3-1-0.4-0.3-0.9-0.7-1.3-1 0 0 0 0 0 0-0.1 0-0.1-0.1-0.2-0.1-0.4-0.3-0.8-0.6-1.1-0.9-0.1-0.1-0.1-0.1-0.2-0.2-0.3-0.3-0.7-0.5-1.1-0.8-0.1-0.1-0.3-0.2-0.4-0.3-0.3-0.2-0.5-0.4-0.8-0.6-0.2-0.1-0.4-0.3-0.5-0.4-0.3-0.2-0.6-0.4-0.8-0.6-0.2-0.1-0.3-0.2-0.5-0.3-0.3-0.2-0.6-0.4-0.9-0.6-0.2-0.1-0.3-0.2-0.5-0.3-0.3-0.2-0.6-0.4-0.9-0.6-0.2-0.1-0.3-0.2-0.5-0.3-0.4-0.3-0.9-0.6-1.4-0.9-0.5-0.3-1-0.6-1.5-0.9-0.2-0.1-0.3-0.2-0.5-0.3-0.4-0.2-0.8-0.5-1.1-0.7-0.1-0.1-0.3-0.2-0.4-0.3-0.2-0.1-0.3-0.2-0.5-0.3-0.1-0.1-0.3-0.2-0.4-0.3-0.2-0.1-0.4-0.2-0.5-0.3 0 0-0.1 0-0.1 0 0 0 0 0 0 0-0.1-0.1-0.2-0.1-0.4-0.2-0.3-0.2-0.6-0.3-0.8-0.5-0.2-0.1-0.3-0.2-0.5-0.3-0.1 0-0.1-0.1-0.2-0.1-0.1-0.1-0.2-0.1-0.3-0.2-0.3-0.2-0.6-0.3-0.8-0.5-0.1-0.1-0.3-0.1-0.4-0.2-0.1 0-0.1-0.1-0.2-0.1-0.1-0.1-0.2-0.1-0.3-0.2-0.3-0.2-0.7-0.4-1-0.5-0.1-0.1-0.3-0.1-0.4-0.2-0.1-0.1-0.3-0.2-0.4-0.2-0.3-0.2-0.7-0.3-1-0.5-0.3-0.1-0.5-0.3-0.8-0.4-0.4-0.2-0.7-0.4-1.1-0.6-0.1 0-0.2-0.1-0.3-0.1 0 0 0 0 0 0-1.6-0.8-3.3-1.6-5-2.4zm-42.5 2c6 1.3 11.9 2.8 17.5 4.6V92.5H192.5ZM40.2 31.5C38.4 32.8 36.7 34.1 35 35.5c-0.6 0.5-1.3 1-1.9 1.5 0 0 0 0-0.1 0-0.6 0.5-1.2 1-1.8 1.6 0 0 0 0 0 0-2.2 1.9-4.2 3.8-6.2 5.8-0.3 0.3-0.6 0.6-0.8 0.9-0.3 0.3-0.6 0.6-0.8 0.9 0 0 0 0 0 0-0.3 0.3-0.5 0.6-0.8 0.9-2.2 2.3-4.2 4.7-6.1 7.2-0.5 0.6-0.9 1.2-1.4 1.9-1.8 2.5-3.5 5.1-5 7.7-0.2 0.3-0.4 0.7-0.6 1-5.8 10.3-9.2 21.6-9.5 33.6 0 0.1 0 0.1 0 0.2 0 0 0 0 0 0 0 0.5 0 1 0 1.5v0 0c0 0 0 0 0 0 0 0.5 0 1 0 1.5 0 0 0 0 0 0.1 0 0.1 0 0.1 0 0.2 0.2 8.5 2 16.6 5.1 24.3 0.2 0.4 0.3 0.8 0.5 1.2 0.2 0.4 0.3 0.8 0.5 1.2 0 0 0 0 0 0.1 0.2 0.4 0.3 0.7 0.5 1.1 0 0 0 0.1 0 0.1 0.2 0.4 0.3 0.7 0.5 1.1 0 0 0 0 0 0 0.2 0.4 0.4 0.7 0.5 1.1 0 0 0 0.1 0.1 0.1 0.2 0.3 0.3 0.7 0.5 1 0 0 0 0.1 0.1 0.1 0.2 0.3 0.4 0.7 0.5 1 0 0 0 0.1 0.1 0.1 0.2 0.3 0.4 0.7 0.6 1 0 0 0 0.1 0.1 0.1 0.2 0.4 0.4 0.7 0.6 1.1 0 0 0 0 0 0.1 0.2 0.4 0.4 0.7 0.6 1.1 0 0 0 0 0 0.1 0.2 0.4 0.5 0.7 0.7 1.1 0.2 0.4 0.5 0.7 0.7 1.1 0 0 0 0 0 0 0.2 0.4 0.5 0.7 0.7 1.1 0.2 0.4 0.5 0.7 0.7 1.1 0.3 0.4 0.5 0.7 0.8 1.1 0.8 1.1 1.6 2.2 2.4 3.2 0.3 0.4 0.6 0.7 0.8 1 0 0 0 0 0.1 0.1 0.2 0.3 0.5 0.6 0.8 0.9 0.1 0.1 0.2 0.2 0.3 0.3 0.2 0.2 0.4 0.5 0.6 0.7 0.1 0.1 0.2 0.2 0.2 0.3 0.2 0.2 0.4 0.5 0.6 0.7 0.1 0.1 0.2 0.3 0.3 0.4 0.2 0.2 0.4 0.4 0.5 0.6 0.1 0.1 0.3 0.3 0.4 0.4 0.2 0.2 0.3 0.4 0.5 0.5 0.1 0.1 0.3 0.3 0.4 0.4 0.2 0.2 0.3 0.4 0.5 0.6 0.1 0.1 0.3 0.3 0.4 0.4 0.2 0.2 0.4 0.4 0.5 0.6 0.1 0.1 0.3 0.3 0.4 0.4 0.2 0.2 0.4 0.4 0.5 0.5 0.2 0.2 0.3 0.3 0.5 0.5 0.2 0.2 0.3 0.3 0.5 0.5 0.2 0.2 0.3 0.3 0.5 0.4 0.2 0.2 0.4 0.3 0.5 0.5 0.1 0.1 0.3 0.3 0.4 0.4 0.2 0.2 0.4 0.3 0.5 0.5 0.2 0.2 0.3 0.3 0.5 0.5 0.1 0.1 0.3 0.3 0.4 0.4 0.2 0.2 0.4 0.4 0.6 0.6 0.1 0.1 0.3 0.2 0.4 0.4 0.2 0.2 0.4 0.4 0.6 0.5 0.1 0.1 0.3 0.3 0.4 0.4 0.2 0.2 0.4 0.3 0.6 0.5 0.2 0.1 0.3 0.3 0.5 0.4 0.2 0.2 0.4 0.3 0.6 0.5 0.1 0.1 0.3 0.2 0.4 0.3 0.2 0.2 0.5 0.4 0.7 0.6 0.1 0.1 0.2 0.2 0.3 0.3 0.2 0.2 0.5 0.4 0.8 0.6 0.1 0.1 0.2 0.2 0.3 0.3 0 0 0 0 0 0 0.1 0.1 0.3 0.2 0.4 0.3 0.1 0.1 0.2 0.2 0.4 0.3 0 0 0.1 0.1 0.1 0.1 0.2 0.2 0.5 0.4 0.7 0.6 0.1 0.1 0.2 0.1 0.3 0.2 0 0 0.1 0.1 0.1 0.1 0 0 0 0 0 0 0.3 0.2 0.6 0.4 0.8 0.6 0 0 0 0 0.1 0.1 0 0 0 0 0.1 0 1.1 0.8 2.1 1.6 3.2 2.3 0.1 0.1 0.1 0.1 0.2 0.2 0.3 0.2 0.6 0.4 0.9 0.6 0.1 0.1 0.2 0.2 0.3 0.2 0.3 0.2 0.6 0.4 0.9 0.6 0.1 0.1 0.3 0.2 0.4 0.3 0.3 0.2 0.6 0.4 0.8 0.6 0 0 0.1 0.1 0.1 0.1 0.3 0.2 0.6 0.4 1 0.6 1.3 0.8 2.7 1.7 4 2.5v-17.8c-1.7-1.2-3.4-2.4-5-3.7-0.5-0.4-1-0.8-1.5-1.2-1-0.8-2-1.6-3-2.5-0.3-0.3-0.6-0.5-0.9-0.8-0.2-0.2-0.4-0.4-0.6-0.6-0.3-0.2-0.5-0.5-0.8-0.7-0.2-0.2-0.4-0.4-0.6-0.6-0.2-0.2-0.5-0.5-0.7-0.7-0.2-0.2-0.4-0.4-0.6-0.6-0.2-0.2-0.5-0.5-0.7-0.7-0.2-0.2-0.4-0.4-0.6-0.6-0.2-0.2-0.5-0.5-0.7-0.7-0.2-0.2-0.4-0.4-0.6-0.6-0.2-0.2-0.5-0.5-0.7-0.7-0.2-0.2-0.4-0.4-0.6-0.6-0.2-0.2-0.4-0.5-0.6-0.7-0.2-0.2-0.4-0.4-0.6-0.7-0.2-0.3-0.4-0.5-0.7-0.8-0.2-0.2-0.3-0.4-0.5-0.6-0.2-0.3-0.4-0.5-0.6-0.8-0.2-0.2-0.4-0.4-0.5-0.7-0.2-0.3-0.4-0.5-0.6-0.8-0.2-0.2-0.3-0.4-0.5-0.6-0.2-0.3-0.4-0.5-0.6-0.8-0.2-0.2-0.3-0.5-0.5-0.7-0.2-0.2-0.4-0.5-0.5-0.7-0.2-0.2-0.3-0.5-0.5-0.7-0.2-0.3-0.3-0.5-0.5-0.8-0.2-0.2-0.3-0.5-0.5-0.7-0.2-0.3-0.3-0.5-0.5-0.8-0.2-0.3-0.3-0.5-0.5-0.8-0.1-0.2-0.3-0.5-0.4-0.7-0.1-0.2-0.3-0.5-0.4-0.7-0.2-0.3-0.3-0.6-0.5-0.8-0.1-0.2-0.2-0.4-0.3-0.6-0.2-0.3-0.3-0.6-0.5-0.9-0.1-0.2-0.2-0.4-0.3-0.6-0.2-0.3-0.3-0.6-0.5-0.9-0.1-0.1-0.1-0.2-0.2-0.3-0.4-0.8-0.7-1.5-1-2.3-0.1-0.1-0.1-0.3-0.2-0.4-0.1-0.2-0.2-0.5-0.3-0.7-0.1-0.3-0.2-0.6-0.3-0.8-0.1-0.3-0.2-0.5-0.3-0.8-0.1-0.3-0.2-0.5-0.3-0.8-0.1-0.3-0.2-0.6-0.3-0.9-0.1-0.2-0.2-0.5-0.2-0.7-0.1-0.3-0.2-0.6-0.3-0.8-0.1-0.3-0.2-0.5-0.2-0.8-0.1-0.3-0.2-0.6-0.2-0.9-0.1-0.2-0.1-0.5-0.2-0.7-0.1-0.3-0.1-0.6-0.2-0.9-0.1-0.2-0.1-0.5-0.2-0.7-0.1-0.3-0.1-0.6-0.2-0.9-0.1-0.3-0.1-0.5-0.2-0.8-0.1-0.3-0.1-0.6-0.2-0.8 0-0.3-0.1-0.5-0.1-0.8 0-0.3-0.1-0.6-0.1-0.9 0-0.1 0-0.3-0.1-0.4H55V92.5H15.5c0-0.2 0.1-0.4 0.1-0.6 0-0.2 0.1-0.4 0.1-0.6 0.1-0.5 0.2-0.9 0.2-1.4 0-0.1 0.1-0.3 0.1-0.4 0.1-0.4 0.1-0.7 0.2-1.1 0-0.2 0.1-0.4 0.1-0.6 0.1-0.3 0.1-0.6 0.2-1 0-0.2 0.1-0.4 0.1-0.5 0.1-0.5 0.2-0.9 0.4-1.4 0-0.2 0.1-0.4 0.2-0.5 0.1-0.3 0.2-0.6 0.3-0.9 0.1-0.2 0.1-0.4 0.2-0.6 0.1-0.3 0.2-0.6 0.3-0.9 0.1-0.2 0.1-0.4 0.2-0.6 0.2-0.4 0.3-0.9 0.5-1.3 0.1-0.2 0.1-0.3 0.2-0.5 0.1-0.3 0.2-0.6 0.4-0.9 0.1-0.2 0.2-0.4 0.2-0.6 0.1-0.3 0.3-0.6 0.4-0.9 0.1-0.2 0.2-0.3 0.2-0.5 0.2-0.4 0.4-0.9 0.6-1.3 0.1-0.2 0.2-0.3 0.3-0.5 0.1-0.3 0.3-0.6 0.4-0.9 0.1-0.2 0.2-0.4 0.3-0.6 0.1-0.3 0.3-0.6 0.4-0.8 0.1-0.2 0.2-0.4 0.3-0.6 0.2-0.4 0.5-0.9 0.7-1.3 0.1-0.2 0.2-0.3 0.3-0.5 0.2-0.3 0.4-0.6 0.5-0.9 0.1-0.2 0.2-0.4 0.4-0.6 0.2-0.3 0.4-0.6 0.5-0.8 0.1-0.2 0.2-0.3 0.3-0.5 0.3-0.4 0.5-0.8 0.8-1.2 0.1-0.2 0.2-0.4 0.4-0.5 0.2-0.3 0.4-0.5 0.6-0.8 0.1-0.2 0.3-0.4 0.4-0.6 0.2-0.3 0.4-0.5 0.6-0.8 0.1-0.2 0.3-0.3 0.4-0.5 0.3-0.4 0.6-0.8 0.9-1.2 0.1-0.2 0.3-0.4 0.4-0.5 0.2-0.2 0.4-0.5 0.6-0.7 0.2-0.2 0.3-0.4 0.5-0.6 0.2-0.3 0.4-0.5 0.7-0.8 0.1-0.2 0.3-0.3 0.4-0.5 0.3-0.4 0.7-0.8 1-1.1 0.2-0.2 0.4-0.4 0.5-0.6 0.2-0.2 0.4-0.4 0.6-0.7 0.2-0.2 0.4-0.4 0.5-0.6 1.7-1.8 3.5-3.5 5.4-5.2z" fill="black"/></svg>